<?xml version="1.0" standalone="no"?>
<!DOCTYPE svg PUBLIC "-//W3C//DTD SVG 20010904//EN"
 "http://www.w3.org/TR/2001/REC-SVG-20010904/DTD/svg10.dtd">
<svg version="1.0" xmlns="http://www.w3.org/2000/svg"
 width="263.000000pt" height="192.000000pt" viewBox="0 0 263.000000 192.000000"
 preserveAspectRatio="xMidYMid meet">

<g transform="translate(0.000000,192.000000) scale(0.100000,-0.100000)"
fill="#000000" stroke="none">
<path d="M2220 1898 c0 -17 -3 -19 -12 -10 -24 24 -36 14 -28 -22 9 -42 19
-58 31 -51 5 4 9 2 9 -3 0 -5 -22 -24 -50 -43 -27 -19 -46 -37 -41 -42 5 -5
38 -6 75 -2 51 6 74 14 105 38 41 32 43 40 11 57 -16 9 -22 5 -36 -25 -18 -39
-53 -54 -87 -36 -21 10 -20 11 8 9 17 -1 41 5 53 14 19 12 22 22 17 49 -9 55
-15 68 -36 79 -16 9 -19 7 -19 -12z m-36 -144 c26 -10 18 -24 -14 -24 -26 0
-29 2 -18 15 16 17 13 16 32 9z"/>
<path d="M376 1888 c-42 -68 -19 -131 46 -123 21 3 28 1 19 -4 -8 -5 -9 -11
-3 -15 6 -3 14 -1 18 5 4 8 9 7 15 -2 4 -7 11 -11 14 -7 4 4 -12 18 -35 33
-37 23 -40 28 -25 38 14 11 40 87 28 87 -2 0 -13 -5 -24 -10 -15 -8 -19 -7
-19 5 0 22 -17 18 -34 -7z"/>
<path d="M1210 1792 c-110 -88 -172 -158 -238 -265 -30 -48 -58 -87 -63 -87
-5 0 -8 3 -8 8 5 28 -3 34 -15 12 -12 -21 -12 -26 2 -36 15 -11 15 -16 -2 -66
-29 -81 -36 -93 -47 -77 -8 12 -11 12 -19 -1 -8 -13 -10 -13 -10 1 0 9 -7 19
-15 23 -13 4 -13 2 -5 -14 5 -10 7 -26 4 -34 -3 -9 -4 -23 -1 -30 11 -29 69
41 102 124 37 92 111 219 168 288 44 52 139 138 205 184 l44 30 56 -38 c87
-59 222 -200 276 -287 47 -76 106 -221 106 -263 0 -17 -6 -20 -47 -20 -27 -1
-79 -11 -117 -24 -61 -21 -73 -22 -110 -11 -157 47 -169 48 -281 9 l-60 -21
-88 26 c-81 24 -92 25 -128 13 -33 -12 -39 -12 -39 0 0 8 -4 14 -10 14 -5 0
-10 -4 -10 -10 0 -5 -9 -18 -21 -29 -20 -18 -11 -40 10 -26 5 3 15 -1 23 -8 8
-9 21 -11 33 -6 34 13 73 10 151 -13 l75 -22 62 22 c80 28 175 29 236 2 55
-25 86 -25 161 1 40 14 78 20 110 17 28 -1 50 0 50 5 0 4 10 7 23 7 33 0 40
11 17 27 -11 8 -24 33 -30 56 -6 23 -18 64 -26 92 -15 48 -15 50 6 67 17 13
19 21 11 35 -9 17 -10 17 -16 1 -11 -28 -33 -21 -51 15 -35 68 -98 151 -168
220 -70 70 -186 157 -210 157 -6 0 -49 -31 -96 -68z"/>
<path d="M307 1816 c-9 -7 -17 -17 -17 -22 0 -18 70 -64 97 -64 46 0 60 -16
21 -24 -22 -4 -48 -1 -72 9 -33 14 -36 18 -24 33 11 15 11 16 -3 4 -9 -7 -27
-11 -40 -10 -19 2 -25 -2 -27 -21 -3 -18 0 -22 12 -18 10 4 16 1 16 -9 0 -12
-6 -15 -24 -10 -17 4 -26 1 -30 -10 -10 -27 -7 -34 19 -34 18 0 25 -5 25 -18
0 -13 -7 -18 -22 -18 -17 1 -24 -5 -26 -21 -3 -19 1 -23 26 -23 39 0 51 -27
17 -36 -26 -6 -29 -12 -19 -38 5 -14 9 -14 33 3 14 10 36 22 49 25 30 10 28
28 -3 20 -34 -8 -46 21 -16 42 29 20 27 36 -4 28 -21 -5 -25 -3 -25 15 0 25
29 28 94 9 60 -17 66 -28 15 -29 l-44 0 50 -14 c55 -16 105 -11 105 10 0 25
57 34 90 13 16 -10 23 -9 45 12 32 30 32 63 0 84 -14 9 -25 13 -24 9 4 -23 -3
-33 -24 -33 -13 0 -32 -7 -43 -16 -19 -15 -18 -15 3 -11 12 3 27 -1 34 -9 9
-12 4 -14 -35 -14 -55 0 -61 17 -13 45 l32 20 -50 6 c-36 4 -45 7 -32 13 10 5
32 6 50 2 23 -4 28 -3 17 4 -8 5 -36 10 -62 10 -26 0 -50 5 -53 10 -3 6 -16
10 -28 10 -24 0 -57 31 -57 55 0 21 -13 25 -33 11z m58 -143 c25 -24 27 -28
12 -31 -10 -2 -23 1 -30 6 -7 5 -24 12 -39 16 -37 9 -37 36 0 36 16 0 39 -11
57 -27z m105 6 c-33 -13 -35 -16 -20 -34 10 -13 9 -15 -8 -15 -12 0 -26 10
-33 21 -14 27 2 39 51 38 33 0 34 -1 10 -10z"/>
<path d="M2079 1752 c-86 -48 -99 -60 -99 -87 0 -32 47 -70 67 -54 7 7 12 19
11 28 -2 13 4 15 32 13 l35 -3 -24 17 c-13 9 -33 17 -45 18 -41 2 -29 31 24
56 28 13 56 30 62 37 14 17 13 17 -63 -25z"/>
<path d="M495 1770 c7 -11 85 -53 90 -48 2 2 -19 16 -47 31 -27 15 -47 23 -43
17z"/>
<path d="M2317 1749 c10 -13 7 -17 -24 -28 -20 -8 -71 -13 -112 -12 -92 2
-113 -8 -71 -33 40 -23 38 -36 -7 -37 l-38 -1 34 -9 c19 -6 35 -18 38 -30 4
-13 14 -19 33 -19 47 0 120 12 120 20 0 5 -18 6 -40 3 -66 -9 -46 12 29 30 86
21 81 22 81 -9 0 -24 -3 -25 -32 -19 l-33 7 30 -29 c17 -15 32 -25 33 -20 2 4
17 7 33 7 22 0 29 5 29 20 0 15 -7 20 -25 20 -16 0 -25 6 -25 15 0 9 9 15 24
15 18 0 23 5 21 18 -2 9 -4 23 -4 29 -1 9 -8 10 -26 3 -20 -7 -25 -6 -25 5 0
8 9 15 20 15 18 0 19 3 10 20 -8 15 -17 19 -31 15 -11 -4 -28 -1 -37 7 -15 11
-15 11 -5 -3z m33 -52 c0 -19 -21 -37 -42 -37 -10 0 -27 -5 -38 -12 -10 -7
-22 -9 -26 -5 -12 11 36 56 65 60 14 2 29 5 34 6 4 0 7 -5 7 -12z m-127 -16
c12 -12 -18 -51 -40 -51 -11 0 -11 4 -3 20 9 17 7 22 -15 30 -14 5 -25 12 -25
16 0 10 72 -4 83 -15z"/>
<path d="M1726 1742 c-4 -7 -9 -72 -7 -110 1 -14 12 -29 31 -40 20 -11 28 -23
26 -37 -4 -26 18 -70 46 -89 27 -19 42 -21 32 -3 -5 9 -4 9 5 1 7 -6 15 -30
18 -53 8 -61 19 -58 19 5 -1 30 -5 54 -9 54 -5 0 -6 13 -2 29 4 21 -2 46 -24
92 -17 34 -31 72 -31 84 0 33 -89 90 -104 67z"/>
<path d="M1307 1690 c-4 -15 0 -20 15 -20 18 0 19 2 7 18 -7 9 -14 18 -15 20
-1 1 -4 -6 -7 -18z"/>
<path d="M1250 1682 c0 -12 19 -26 26 -19 2 2 -2 10 -11 17 -9 8 -15 8 -15 2z"/>
<path d="M1200 1630 c0 -13 18 -22 24 -11 3 5 -1 11 -9 15 -8 3 -15 1 -15 -4z"/>
<path d="M1400 1629 c0 -5 5 -7 10 -4 6 3 10 8 10 11 0 2 -4 4 -10 4 -5 0 -10
-5 -10 -11z"/>
<path d="M1390 1578 c0 -17 2 -18 15 -8 8 7 15 14 15 15 0 2 -7 5 -15 9 -10 4
-15 -1 -15 -16z"/>
<path d="M1195 1580 c-19 -8 -19 -9 3 -9 12 -1 22 4 22 9 0 6 -1 10 -2 9 -2 0
-12 -4 -23 -9z"/>
<path d="M475 1563 c-13 -9 -38 -13 -72 -11 -40 2 -49 0 -41 -9 7 -9 39 -13
90 -13 81 0 104 -17 26 -19 -24 0 -52 -3 -63 -6 -107 -26 -108 -26 -118 -13
-6 9 -7 8 -3 -5 4 -13 0 -20 -14 -24 -26 -7 -25 -14 8 -67 l29 -45 29 30 c39
38 112 51 206 35 71 -12 100 -26 53 -26 -36 0 -27 -9 19 -20 27 -6 36 -4 40 7
8 20 8 23 -5 23 -12 0 -37 28 -75 85 -14 22 -41 52 -58 67 -29 24 -33 25 -51
11z m101 -76 c4 -3 -9 -10 -27 -16 -24 -6 -28 -9 -12 -10 63 -3 70 -28 8 -29
-38 -1 -45 2 -43 16 2 11 -2 16 -12 13 -8 -2 -26 -6 -40 -8 -14 -3 -43 -14
-66 -24 -52 -24 -64 -24 -64 2 0 31 19 44 80 55 58 11 166 11 176 1z m-266
-73 c0 -8 -4 -12 -10 -9 -5 3 -10 10 -10 16 0 5 5 9 10 9 6 0 10 -7 10 -16z"/>
<path d="M2095 1549 c-20 -18 -43 -45 -52 -62 -17 -34 -52 -71 -74 -80 -8 -3
-9 -6 -2 -6 7 -1 10 -8 6 -18 -5 -13 -2 -15 11 -10 10 4 27 7 39 7 17 0 19 2
7 9 -8 6 -18 7 -22 5 -4 -3 -8 -1 -8 5 0 10 31 23 46 20 5 -2 39 1 75 5 87 10
124 1 161 -40 l31 -33 31 52 32 52 -24 13 c-17 10 -21 17 -13 25 7 7 16 5 31
-8 11 -10 20 -14 21 -9 0 5 2 19 5 32 2 13 -1 22 -9 22 -6 1 -31 5 -54 9 -47
9 -59 -4 -17 -19 31 -12 23 -30 -13 -30 -25 0 -25 -1 -10 -18 10 -10 17 -28
17 -40 0 -19 -4 -21 -27 -16 -16 4 -41 14 -58 24 -16 9 -63 23 -103 29 -96 17
-85 35 17 28 42 -3 86 -9 99 -12 13 -5 22 -3 22 3 0 14 -64 32 -120 33 -41 1
-43 1 -16 9 16 5 53 8 82 6 37 -2 58 1 66 11 10 12 3 14 -43 12 -30 -2 -64 2
-76 9 -19 11 -26 8 -58 -19z m29 -98 c4 -5 1 -11 -5 -13 -19 -6 -79 4 -79 13
0 12 77 12 84 0z m216 -32 c0 -5 -4 -9 -10 -9 -5 0 -10 7 -10 16 0 8 5 12 10
9 6 -3 10 -10 10 -16z"/>
<path d="M1120 1547 c0 -9 -6 -18 -12 -20 -7 -3 -1 -6 15 -6 31 -1 33 4 12 25
-13 14 -15 14 -15 1z"/>
<path d="M1500 1545 c0 -11 -5 -15 -16 -11 -8 3 -12 2 -9 -4 6 -10 55 -14 55
-4 0 3 -7 12 -15 20 -13 14 -15 14 -15 -1z"/>
<path d="M1359 1519 c-23 -25 -24 -28 -8 -32 13 -3 19 2 21 17 2 13 10 20 21
20 20 -2 23 12 5 18 -7 2 -25 -8 -39 -23z"/>
<path d="M1424 1539 c-3 -6 -3 -13 0 -16 3 -4 6 0 6 7 0 9 5 7 15 -6 12 -16
14 -17 15 -3 0 20 -26 33 -36 18z"/>
<path d="M1060 1531 c0 -6 5 -13 10 -16 6 -3 10 1 10 9 0 9 -4 16 -10 16 -5 0
-10 -4 -10 -9z"/>
<path d="M1020 1475 c7 -9 15 -13 17 -11 7 7 -7 26 -19 26 -6 0 -6 -6 2 -15z"/>
<path d="M1210 1479 c0 -5 5 -7 10 -4 6 3 10 8 10 11 0 2 -4 4 -10 4 -5 0 -10
-5 -10 -11z"/>
<path d="M1281 1487 c2 -1 12 -9 22 -16 14 -12 17 -11 17 3 0 10 -8 16 -22 16
-12 0 -19 -1 -17 -3z"/>
<path d="M1390 1482 c0 -5 7 -13 16 -16 10 -4 14 -1 12 6 -5 15 -28 23 -28 10z"/>
<path d="M1590 1479 c0 -5 5 -7 10 -4 6 3 10 8 10 11 0 2 -4 4 -10 4 -5 0 -10
-5 -10 -11z"/>
<path d="M1767 1470 c3 -11 9 -20 14 -20 11 0 11 3 3 24 -9 23 -23 20 -17 -4z"/>
<path d="M850 1460 c-6 -11 -7 -20 -2 -20 6 0 12 9 15 20 3 11 3 20 1 20 -2 0
-8 -9 -14 -20z"/>
<path d="M740 1429 c7 -11 14 -18 17 -15 8 8 -5 36 -17 36 -7 0 -7 -6 0 -21z"/>
<path d="M1580 1420 c0 -34 -38 -70 -73 -70 -25 0 -26 -2 -15 -20 11 -17 14
-18 16 -5 3 11 12 15 30 13 21 -2 27 1 27 17 0 12 9 21 25 25 17 4 21 8 12 14
-20 12 -15 39 7 33 12 -3 18 0 15 7 -2 6 -13 12 -24 12 -15 0 -20 -7 -20 -26z"/>
<path d="M1010 1430 c-13 -8 -12 -10 3 -10 9 0 17 5 17 10 0 12 -1 12 -20 0z"/>
<path d="M1207 1433 c-4 -3 -7 -14 -7 -23 0 -25 -43 -60 -73 -60 -25 0 -26 -2
-15 -20 10 -15 14 -17 16 -6 4 16 42 29 42 13 0 -6 3 -7 7 -3 4 4 8 15 8 24 0
9 11 19 25 23 14 4 19 7 13 8 -20 2 -15 39 5 44 14 4 14 5 1 6 -9 0 -19 -2
-22 -6z"/>
<path d="M1385 1430 c-19 -8 -19 -9 3 -9 12 -1 22 4 22 9 0 6 -1 10 -2 9 -2 0
-12 -4 -23 -9z"/>
<path d="M698 1400 c3 -18 0 -30 -7 -30 -18 0 -13 -17 7 -22 26 -7 45 2 33 15
-5 7 -11 23 -13 36 -1 14 -8 26 -14 28 -7 2 -9 -8 -6 -27z"/>
<path d="M1920 1391 c-14 -27 -13 -31 9 -31 10 0 21 7 24 14 4 11 1 13 -10 9
-12 -5 -15 -2 -10 10 9 23 0 21 -13 -2z"/>
<path d="M455 1385 c-5 -2 -23 -6 -38 -9 -15 -4 -25 -11 -22 -16 7 -11 -27
-30 -54 -30 -12 0 -21 -5 -21 -11 0 -16 76 -1 136 26 l51 24 46 -21 c30 -14
47 -28 47 -39 0 -10 5 -21 10 -24 13 -8 13 -42 -1 -50 -5 -4 -18 0 -27 8 -23
20 -72 33 -72 18 0 -6 6 -11 14 -11 7 0 19 -7 26 -15 7 -8 23 -15 36 -15 12 0
26 -4 29 -10 4 -6 -10 -10 -34 -10 -22 0 -43 5 -46 10 -12 20 -85 50 -119 50
-19 0 -38 4 -41 10 -3 5 -15 15 -26 20 -16 9 -19 7 -19 -9 0 -22 25 -33 80
-36 71 -4 109 -34 75 -59 -12 -9 -5 -11 37 -13 56 -3 97 -27 65 -39 -10 -3
-37 -1 -62 5 -31 8 -52 8 -72 0 -15 -6 -54 -11 -85 -12 -35 -1 -60 -7 -62 -14
-4 -9 7 -11 42 -5 79 11 207 8 224 -6 17 -14 15 -17 55 97 9 27 13 63 10 88
-4 37 -2 43 14 43 11 0 19 4 19 9 0 4 -10 6 -23 4 -13 -3 -49 7 -81 21 -54 24
-85 30 -111 21z"/>
<path d="M2085 1374 c-16 -8 -52 -18 -79 -21 -37 -5 -45 -8 -29 -14 17 -6 19
-14 15 -62 -3 -34 0 -57 7 -61 6 -4 39 6 74 23 47 23 56 30 37 30 -14 1 -38
-6 -54 -14 -15 -8 -32 -15 -37 -15 -12 0 -11 26 0 48 5 9 12 25 15 35 3 9 19
20 36 23 16 4 30 10 30 15 0 14 28 10 70 -10 51 -25 140 -38 140 -21 0 7 -8
10 -18 8 -21 -6 -61 12 -61 27 0 25 -103 32 -146 9z"/>
<path d="M1891 1334 c0 -11 3 -14 6 -6 3 7 2 16 -1 19 -3 4 -6 -2 -5 -13z"/>
<path d="M674 1315 c-4 -8 -4 -24 -1 -35 3 -10 -1 -24 -9 -31 -18 -15 -18 -29
1 -29 9 0 20 12 26 27 6 15 14 30 18 33 11 7 -5 50 -19 50 -6 0 -13 -7 -16
-15z"/>
<path d="M1917 1310 c-3 -10 1 -24 9 -31 8 -6 14 -20 14 -30 0 -22 12 -30 30
-19 12 7 12 11 0 25 -8 10 -13 30 -12 46 3 23 0 29 -16 29 -11 0 -22 -9 -25
-20z"/>
<path d="M2097 1313 c-27 -2 -47 -9 -45 -14 2 -6 7 -10 11 -10 4 1 44 1 90 1
l82 1 -40 14 c-22 8 -42 14 -45 13 -3 -1 -27 -3 -53 -5z"/>
<path d="M433 1300 c-13 -5 -23 -11 -23 -13 0 -2 38 -3 85 -3 50 1 85 5 85 11
0 13 -118 17 -147 5z"/>
<path d="M740 1293 c0 -12 -6 -23 -14 -26 -7 -3 -15 -16 -18 -29 -4 -21 -1
-23 33 -20 l36 4 -11 38 c-13 46 -26 62 -26 33z"/>
<path d="M1819 1293 c0 -10 -3 -13 -6 -5 -2 6 -9 12 -14 12 -5 0 -8 -6 -6 -12
1 -7 -4 -12 -10 -10 -23 4 -14 -14 12 -26 14 -6 25 -16 25 -21 0 -6 23 -10 50
-9 42 0 50 3 50 18 0 10 -7 25 -15 34 -8 8 -15 19 -15 25 0 6 -4 11 -9 11 -5
0 -11 -18 -15 -40 -3 -22 -10 -40 -15 -40 -11 0 -24 48 -16 60 3 5 1 11 -5 15
-5 3 -10 -2 -11 -12z"/>
<path d="M2257 1280 c-14 -11 -39 -20 -57 -20 -34 0 -89 -25 -106 -48 -7 -10
-19 -13 -35 -9 -33 8 -53 -5 -44 -32 6 -21 25 -30 25 -12 0 5 28 13 63 17 34
4 54 9 45 12 -46 10 8 64 60 61 55 -3 92 10 92 32 0 24 -11 24 -43 -1z"/>
<path d="M330 1211 l0 -42 30 16 c16 8 44 15 62 15 28 1 30 2 15 11 -9 6 -27
7 -38 4 -14 -5 -28 0 -45 16 l-24 22 0 -42z"/>
<path d="M2276 1235 c-3 -9 -18 -15 -38 -15 -18 0 -40 -5 -48 -10 -11 -7 -4
-10 25 -10 22 0 51 -7 63 -16 22 -15 22 -14 22 25 0 41 -13 55 -24 26z"/>
<path d="M1883 1175 c0 -22 2 -30 4 -17 2 12 2 30 0 40 -3 9 -5 -1 -4 -23z"/>
<path d="M2198 1168 c15 -15 94 -30 104 -20 5 5 -16 13 -52 19 -35 6 -57 6
-52 1z"/>
<path d="M368 1163 c-27 -2 -48 -9 -48 -15 0 -13 89 -3 104 12 6 6 6 9 1 8 -6
-1 -31 -3 -57 -5z"/>
<path d="M830 1129 c0 -9 9 -19 20 -22 25 -6 26 -24 3 -30 -17 -4 -17 -5 0 -6
9 0 17 -5 17 -10 0 -5 18 -2 40 6 38 15 45 15 114 -5 93 -27 121 -27 199 -1
71 24 153 22 207 -6 39 -20 105 -17 202 11 55 15 73 16 98 7 16 -6 30 -7 30
-3 0 5 8 11 18 13 16 4 16 5 0 6 -25 1 -23 21 2 21 13 0 20 7 20 20 0 19 -4
20 -72 14 -40 -4 -97 -15 -127 -26 -70 -23 -118 -23 -172 2 -54 24 -147 26
-204 4 -68 -27 -103 -28 -182 -4 -70 21 -102 22 -145 5 -12 -5 -18 -2 -18 6 0
8 -11 14 -25 14 -16 0 -25 -6 -25 -16z"/>
<path d="M2067 1143 c-30 -3 -37 -8 -33 -19 3 -9 6 -21 6 -27 0 -6 6 -3 13 6
14 20 90 25 200 12 40 -5 67 -4 67 1 0 6 -24 10 -52 11 -29 1 -66 6 -81 12
-28 11 -46 11 -120 4z"/>
<path d="M445 1090 c-4 -6 -17 -15 -29 -20 -15 -6 -7 -8 34 -9 30 0 70 -2 89
-3 54 -5 48 18 -6 25 -26 3 -55 8 -64 12 -10 3 -20 1 -24 -5z"/>
<path d="M2148 1094 c-3 -3 -25 -6 -49 -7 -32 -1 -44 -6 -44 -17 0 -11 9 -14
30 -12 17 2 53 4 82 5 49 2 89 17 45 17 -11 0 -24 5 -27 10 -7 11 -28 13 -37
4z"/>
<path d="M282 1070 c-11 -19 -10 -20 26 -20 21 0 43 -5 50 -12 6 -6 24 -12 39
-14 70 -7 119 -17 130 -26 8 -6 15 -3 22 10 9 17 7 19 -17 20 -81 4 -142 15
-153 28 -6 8 -23 14 -38 14 -15 0 -31 4 -37 10 -6 6 -14 3 -22 -10z"/>
<path d="M2315 1081 c-3 -6 -17 -11 -31 -11 -14 0 -35 -7 -47 -15 -13 -8 -53
-16 -95 -17 -73 -3 -82 -7 -59 -27 11 -8 26 -7 63 4 27 8 63 15 81 15 17 0 35
5 38 10 3 6 24 10 46 10 32 0 40 3 37 17 -4 20 -24 28 -33 14z"/>
<path d="M2355 1040 c-4 -6 -27 -20 -52 -31 -34 -15 -48 -16 -62 -7 -23 14
-141 -9 -135 -27 3 -7 -2 -18 -11 -25 -8 -7 -15 -18 -15 -25 0 -18 90 -105
109 -105 9 0 22 -5 28 -11 8 -8 13 -8 17 0 11 17 52 13 88 -9 35 -21 88 -27
88 -10 0 6 -10 10 -22 10 -12 0 -41 9 -65 21 -28 13 -56 20 -79 17 -24 -3 -33
0 -30 8 2 6 -9 24 -25 40 l-30 28 23 17 c12 9 29 15 37 12 13 -4 14 -3 2 5
-10 7 -22 7 -38 -1 -19 -8 -27 -7 -39 5 -15 15 -13 17 15 23 17 4 46 2 63 -4
18 -5 44 -11 58 -13 14 -2 27 -6 30 -9 10 -13 133 -15 137 -3 5 14 -65 25 -87
14 -9 -5 -26 -3 -38 4 -21 11 -21 14 -8 25 8 7 24 10 36 6 24 -8 37 15 22 41
-7 12 -11 13 -17 4z m-165 -186 c0 -14 -31 0 -41 19 -7 12 -18 26 -25 30 -8 4
-14 16 -14 25 0 12 13 3 40 -27 22 -24 40 -45 40 -47z"/>
<path d="M255 1030 c-12 -20 5 -48 25 -43 11 3 27 2 36 -1 16 -6 15 -8 -2 -20
-13 -10 -34 -13 -66 -9 -32 4 -53 1 -64 -8 -15 -12 -14 -14 2 -19 10 -4 36 -3
57 2 21 5 43 6 48 2 5 -3 17 0 25 7 8 7 27 14 42 16 15 2 46 6 70 9 23 3 50 3
59 0 14 -6 14 -9 -6 -22 -17 -12 -25 -13 -36 -4 -11 9 -21 9 -42 1 l-28 -11
28 5 c16 3 36 0 47 -8 19 -13 19 -15 -11 -45 -17 -17 -28 -36 -24 -43 5 -8 -1
-9 -24 -4 -22 5 -45 0 -85 -18 -33 -15 -64 -23 -77 -20 -15 4 -20 3 -15 -5 11
-19 62 -14 102 10 29 17 42 19 63 12 37 -14 78 3 129 52 43 42 54 74 26 74
-11 0 -15 6 -12 18 7 25 -57 43 -134 40 -45 -2 -62 1 -87 20 -34 25 -37 26
-46 12z m234 -149 c-30 -38 -49 -51 -49 -34 0 10 73 83 78 78 2 -2 -11 -22
-29 -44z"/>
<path d="M925 1028 c-16 -6 -35 -15 -42 -20 -8 -7 -23 -4 -44 6 -38 19 -49 14
-49 -23 0 -28 20 -53 51 -64 9 -3 20 -22 24 -44 12 -63 123 -295 170 -355 24
-31 72 -79 105 -107 63 -53 174 -131 185 -131 15 0 167 134 232 204 37 40 85
102 106 137 43 73 84 194 93 275 7 53 24 86 24 45 0 -25 8 -26 38 -5 29 20 32
84 4 84 -10 0 -24 -6 -30 -12 -10 -10 -15 -10 -21 0 -5 8 -11 13 -15 12 -3 -1
-19 1 -34 4 -15 4 -52 -1 -82 -9 -138 -40 -135 -40 -195 -17 -76 29 -174 29
-250 0 l-56 -21 -82 23 c-45 13 -86 24 -92 26 -5 1 -23 -2 -40 -8z m131 -80
l75 -22 62 22 c80 28 175 29 236 2 55 -25 83 -25 165 1 37 11 86 19 109 17 35
-3 43 -7 45 -27 6 -41 -29 -164 -73 -256 -53 -109 -124 -197 -236 -289 -46
-39 -91 -76 -100 -83 -14 -12 -28 -5 -103 48 -132 94 -215 187 -271 305 -57
120 -82 183 -94 234 -8 37 -7 39 23 54 42 21 73 20 162 -6z"/>
<path d="M1249 722 c-1 -4 -2 -13 -3 -21 0 -8 -23 -26 -49 -39 -57 -30 -98
-79 -73 -88 9 -3 32 4 52 15 20 12 37 21 38 19 20 -30 65 -158 60 -173 -6 -22
27 -65 50 -65 22 0 46 35 46 67 0 26 43 160 56 172 2 2 12 -3 21 -12 23 -20
69 -32 77 -19 7 12 -41 59 -89 87 -22 12 -40 28 -40 36 0 8 -4 17 -9 20 -12 9
-136 9 -137 1z"/>
<path d="M1904 986 c-3 -8 -4 -27 -2 -43 3 -23 5 -20 9 15 5 43 2 53 -7 28z"/>
<path d="M560 900 c-13 -19 -27 -37 -30 -40 -18 -17 -49 -70 -40 -70 16 0 74
31 82 44 13 19 9 29 -7 16 -28 -23 -28 -2 0 24 15 14 25 33 23 43 -3 14 -8 11
-28 -17z"/>
<path d="M2036 922 c-3 -6 8 -24 26 -41 18 -16 29 -33 25 -37 -4 -4 -14 1 -22
12 -16 22 -20 12 -5 -16 10 -18 69 -54 77 -46 7 7 -24 58 -60 100 -20 23 -37
34 -41 28z"/>
<path d="M290 915 c-8 -2 -32 -6 -52 -10 -24 -4 -38 -11 -38 -21 0 -11 4 -12
19 -4 12 6 28 7 43 1 l23 -9 -28 -11 c-16 -6 -35 -11 -43 -11 -9 0 -14 -7 -12
-17 5 -24 27 -19 90 18 38 23 59 29 81 25 29 -6 67 7 67 24 0 5 -19 9 -42 8
-24 0 -54 2 -68 5 -14 3 -32 4 -40 2z"/>
<path d="M2196 911 c-11 -17 23 -33 63 -30 24 2 47 -3 58 -12 59 -47 113 -59
113 -24 0 9 -4 14 -9 11 -12 -8 -71 14 -71 26 0 6 17 8 40 6 25 -2 40 1 40 8
0 6 -6 11 -12 12 -7 0 -38 3 -68 6 -32 4 -67 1 -83 -5 -21 -9 -31 -9 -40 0
-13 13 -24 14 -31 2z"/>
<path d="M145 900 c-3 -4 4 -10 15 -13 11 -3 22 -2 25 3 3 4 -4 10 -15 13 -11
3 -22 2 -25 -3z"/>
<path d="M2440 900 c0 -5 12 -10 26 -10 14 0 23 4 19 10 -3 6 -15 10 -26 10
-10 0 -19 -4 -19 -10z"/>
<path d="M122 859 c2 -7 10 -15 17 -17 8 -3 12 1 9 9 -2 7 -10 15 -17 17 -8 3
-12 -1 -9 -9z"/>
<path d="M2480 860 c0 -5 7 -10 15 -10 8 0 15 5 15 10 0 6 -7 10 -15 10 -8 0
-15 -4 -15 -10z"/>
<path d="M96 815 c-3 -9 0 -15 9 -15 16 0 20 16 6 24 -5 3 -11 -1 -15 -9z"/>
<path d="M2515 819 c-9 -14 -2 -20 14 -10 8 6 9 11 3 15 -6 3 -14 1 -17 -5z"/>
<path d="M555 790 l-29 -30 31 0 c30 0 43 14 43 46 0 22 -14 17 -45 -16z"/>
<path d="M2030 803 c0 -28 13 -41 40 -40 14 0 34 -4 45 -8 11 -5 -1 8 -28 28
-54 42 -57 43 -57 20z"/>
<path d="M2230 780 c0 -3 7 -15 15 -27 12 -17 21 -20 38 -14 12 5 38 7 57 5
19 -2 28 -1 20 3 -8 3 -19 12 -25 19 -10 12 -105 25 -105 14z"/>
<path d="M80 766 c0 -9 5 -16 10 -16 6 0 10 4 10 9 0 6 -4 13 -10 16 -5 3 -10
-1 -10 -9z"/>
<path d="M313 773 c-25 -5 -32 -33 -9 -33 7 0 27 -3 43 -6 24 -5 31 -2 40 19
11 22 9 24 -20 24 -18 0 -42 -2 -54 -4z"/>
<path d="M2530 764 c0 -8 5 -12 10 -9 6 3 10 10 10 16 0 5 -4 9 -10 9 -5 0
-10 -7 -10 -16z"/>
<path d="M498 753 c7 -3 16 -2 19 1 4 3 -2 6 -13 5 -11 0 -14 -3 -6 -6z"/>
<path d="M549 737 c-15 -11 -15 -14 6 -23 20 -10 24 -8 28 12 5 26 -9 30 -34
11z"/>
<path d="M2047 730 c6 -22 18 -26 28 -10 4 6 11 8 16 5 5 -4 9 -2 9 3 0 8 -31
21 -52 22 -3 0 -4 -9 -1 -20z"/>
<path d="M2543 743 c-16 -6 -17 -54 -2 -86 6 -14 22 -31 35 -38 13 -6 27 -22
30 -33 7 -20 7 -20 15 2 6 15 5 31 -2 44 -6 11 -12 33 -13 49 -1 15 -10 37
-21 49 -19 21 -22 22 -42 13z"/>
<path d="M40 713 c-11 -15 -19 -32 -16 -40 3 -7 -1 -24 -8 -38 -8 -15 -12 -34
-9 -44 4 -15 11 -12 45 20 33 30 41 45 45 83 5 41 4 46 -15 46 -11 0 -30 -12
-42 -27z"/>
<path d="M248 733 c7 -3 16 -2 19 1 4 3 -2 6 -13 5 -11 0 -14 -3 -6 -6z"/>
<path d="M2270 712 c0 -5 20 -32 45 -61 25 -29 45 -48 45 -42 0 6 12 11 26 11
36 0 21 16 -22 24 -41 8 -41 29 -1 34 42 5 32 19 -23 31 -61 13 -70 13 -70 3z"/>
<path d="M260 695 l-25 -14 33 -7 c43 -9 40 -21 -8 -34 -22 -6 -38 -15 -35
-20 3 -5 12 -7 20 -4 8 4 18 -1 21 -10 5 -13 16 -3 50 40 24 31 44 58 44 60 0
10 -78 2 -100 -11z"/>
<path d="M555 680 c-19 -8 -19 -9 3 -9 12 -1 22 4 22 9 0 6 -1 10 -2 9 -2 0
-12 -4 -23 -9z"/>
<path d="M2058 678 c9 -9 15 -9 24 0 9 9 7 12 -12 12 -19 0 -21 -3 -12 -12z"/>
<path d="M573 649 c-13 -5 -23 -15 -23 -24 0 -12 4 -14 19 -5 20 10 36 29 30
34 -2 2 -14 0 -26 -5z"/>
<path d="M2036 647 c5 -13 43 -31 51 -24 6 7 -14 25 -34 31 -18 6 -22 4 -17
-7z"/>
<path d="M623 619 c-5 -5 -19 -11 -31 -12 -16 -1 -18 -4 -10 -14 15 -18 32
-16 52 6 18 19 7 38 -11 20z"/>
<path d="M1990 617 c0 -9 10 -21 21 -28 17 -9 25 -8 37 5 15 15 14 16 -9 16
-14 0 -30 5 -37 12 -9 9 -12 8 -12 -5z"/>
<path d="M632 575 c-13 -7 -19 -16 -14 -19 15 -9 42 4 42 20 0 8 -1 14 -2 13
-2 -1 -14 -7 -26 -14z"/>
<path d="M1970 579 c0 -12 25 -22 41 -17 6 2 0 9 -15 16 -16 7 -26 8 -26 1z"/>
<path d="M255 570 c-4 -6 -15 -8 -26 -5 -29 10 -23 -2 11 -19 29 -14 30 -14
30 10 0 26 -5 30 -15 14z"/>
<path d="M2360 552 c0 -23 1 -24 18 -10 9 9 24 18 32 20 8 3 0 7 -17 10 -30 4
-33 2 -33 -20z"/>
<path d="M1940 555 c0 -2 10 -10 23 -16 20 -11 21 -11 8 4 -13 16 -31 23 -31
12z"/>
<path d="M655 539 c-11 -17 -2 -18 19 -3 17 12 17 14 4 14 -9 0 -20 -5 -23
-11z"/>
<path d="M710 546 c0 -2 8 -10 18 -17 15 -13 16 -12 3 4 -13 16 -21 21 -21 13z"/>
<path d="M229 507 c-15 -11 -14 -14 7 -24 22 -10 24 -9 24 13 0 27 -7 29 -31
11z"/>
<path d="M1856 493 c-3 -11 -9 -28 -12 -37 -5 -13 1 -16 28 -16 39 0 63 16 71
47 4 19 0 22 -39 25 -37 3 -44 0 -48 -19z"/>
<path d="M2370 496 c0 -22 2 -23 24 -13 18 9 22 15 14 24 -17 21 -38 15 -38
-11z"/>
<path d="M698 502 c-15 -6 -16 -11 -5 -32 10 -20 21 -26 54 -28 l41 -3 -10 35
c-9 30 -16 36 -37 35 -14 0 -34 -3 -43 -7z"/>
<path d="M2377 453 c-4 -3 -7 -13 -7 -22 0 -12 3 -12 12 -3 7 7 21 12 33 13
20 0 20 0 0 9 -26 11 -30 11 -38 3z"/>
<path d="M218 443 c12 -2 22 -9 22 -14 0 -5 5 -9 10 -9 6 0 10 7 10 15 0 11
-10 15 -32 14 -24 -1 -27 -3 -10 -6z"/>
<path d="M641 393 l-45 -18 2 -65 c2 -36 -2 -71 -6 -78 -8 -11 -30 -11 -130 2
-66 9 -126 14 -134 12 -7 -2 -25 -7 -40 -10 -50 -11 -53 -37 -17 -134 18 -48
36 -91 40 -96 12 -14 36 11 43 44 4 22 11 30 28 31 48 3 117 -3 206 -17 87
-15 95 -14 130 3 l37 18 0 83 c0 45 4 82 8 82 26 0 116 -28 207 -65 189 -78
335 -93 523 -54 56 11 135 36 176 55 64 30 172 63 205 64 5 0 6 -28 3 -61 -3
-34 -1 -73 4 -86 11 -29 71 -56 108 -48 64 14 239 33 263 28 19 -4 29 -13 33
-33 8 -37 29 -55 43 -37 18 22 72 176 66 191 -13 34 -91 51 -171 37 -32 -5
-86 -13 -121 -16 l-63 -7 2 78 2 79 -49 18 c-96 36 -235 8 -449 -92 l-100 -46
-125 0 -125 0 -92 43 c-213 100 -369 132 -462 95z"/>
<path d="M2349 374 c-9 -19 -12 -34 -7 -34 4 0 13 11 18 24 5 13 14 26 21 28
10 3 9 6 -2 10 -9 3 -20 -7 -30 -28z"/>
<path d="M240 390 c0 -5 7 -10 15 -10 8 0 15 5 15 10 0 6 -7 10 -15 10 -8 0
-15 -4 -15 -10z"/>
<path d="M270 362 c0 -12 19 -26 26 -19 2 2 -2 10 -11 17 -9 8 -15 8 -15 2z"/>
<path d="M273 332 c-35 -3 -43 -7 -43 -23 0 -14 12 -25 36 -35 50 -21 69 -15
67 20 -3 38 -9 42 -60 38z"/>
<path d="M2300 315 c-5 -14 -10 -31 -10 -36 0 -15 64 -10 88 7 32 22 28 44 -7
44 -16 0 -36 3 -45 6 -11 4 -19 -2 -26 -21z"/>
</g>
</svg>
